<svg width="24" height="24" viewBox="0 0 24 24" fill="currentColor" xmlns="http://www.w3.org/2000/svg">
<path d="M6.51745 13C6.64898 13 6.7805 13.057 6.88434 13.1792L11.3978 18.4892C11.73 18.8802 12.27 18.8802 12.6023 18.4892L17.1157 13.1792C17.3164 12.943 17.6487 12.943 17.8494 13.1792C18.0502 13.4154 18.0502 13.8063 17.8494 14.0425L13.336 19.3525C12.6023 20.2158 11.4047 20.2158 10.664 19.3525L6.15056 14.0425C5.94981 13.8063 5.94981 13.4154 6.15056 13.1792C6.2544 13.0652 6.38592 13 6.51745 13Z" fill="currentColor"/>
<path d="M17.4825 10C17.351 10 17.2195 9.94299 17.1157 9.82083L12.6022 4.51076C12.27 4.11983 11.73 4.11983 11.3977 4.51076L6.88434 9.82083C6.68359 10.057 6.35131 10.057 6.15056 9.82083C5.94981 9.58464 5.94981 9.19372 6.15056 8.95754L10.664 3.64747C11.3977 2.78418 12.5953 2.78418 13.336 3.64747L17.8494 8.95754C18.0502 9.19372 18.0502 9.58464 17.8494 9.82083C17.7456 9.93485 17.6141 10 17.4825 10Z" fill="currentColor"/>
</svg>
